<svg width="130" height="130" viewBox="0 0 130 130" fill="none" xmlns="http://www.w3.org/2000/svg"><g clip-path="url(#a)" fill="#A6CE39"><path d="M2.132 64.971h.076a2.167 2.167 0 0 0 2.167-2.093C5.547 29.394 33.64 3.2 67.125 4.372a60.665 60.665 0 0 1 35.406 12.964h-11.53a2.167 2.167 0 0 0 0 4.333h17.363a2.2 2.2 0 0 0 .498-.1c.111-.015.22-.04.327-.071.061-.026.106-.08.165-.113.194-.095.373-.22.528-.37l.022-.015c.055-.076.105-.154.15-.236.113-.139.209-.29.283-.453.06-.173.097-.353.109-.535.025-.09.043-.181.054-.273V2.17a2.167 2.167 0 0 0-4.333 0v12.549C78.407-8.026 37.464-3.961 14.719 23.8A64.984 64.984 0 0 0 .041 62.733a2.167 2.167 0 0 0 2.091 2.238zM19.673 105.32a2.172 2.172 0 0 0-3.25 2.88 66.06 66.06 0 0 0 4.721 4.783 2.166 2.166 0 0 0 2.923-3.198 61.013 61.013 0 0 1-4.394-4.465zM45.53 122.475a60.078 60.078 0 0 1-5.827-2.316 2.167 2.167 0 1 0-1.81 3.935 64.002 64.002 0 0 0 6.248 2.487 2.167 2.167 0 1 0 1.389-4.106zM34.148 117.247v-.002a62.427 62.427 0 0 1-5.23-3.466 2.165 2.165 0 1 0-2.684 3.402 65.709 65.709 0 0 0 5.704 3.795 2.166 2.166 0 1 0 2.21-3.729zM15.75 100.43a61.516 61.516 0 0 1-3.398-5.271 2.17 2.17 0 1 0-3.759 2.166 65.697 65.697 0 0 0 3.64 5.636 2.168 2.168 0 0 0 3.516-2.531zM9.706 90.46c0-.301-.063-.6-.185-.876l-.005-.015a60.501 60.501 0 0 1-2.242-5.85 2.166 2.166 0 1 0-4.117 1.337 65.122 65.122 0 0 0 2.4 6.283 2.167 2.167 0 0 0 4.15-.878zM3.986 80.224a2.167 2.167 0 0 0 1.67-2.567 61.415 61.415 0 0 1-.98-6.195 2.168 2.168 0 0 0-4.312.457 65.407 65.407 0 0 0 1.053 6.635 2.167 2.167 0 0 0 2.569 1.67zM126.536 78.013h-.003a2.167 2.167 0 0 0-2.624 1.58 60.695 60.695 0 0 1-1.817 6.004 2.167 2.167 0 1 0 4.077 1.47 65.195 65.195 0 0 0 1.95-6.431 2.167 2.167 0 0 0-1.583-2.623zM57.745 125.233a60.672 60.672 0 0 1-6.18-1.061 2.166 2.166 0 1 0-.955 4.227c2.187.493 4.398.872 6.624 1.137a2.167 2.167 0 0 0 .511-4.303zM122.54 90.37a2.167 2.167 0 0 0-2.893 1.008 59.969 59.969 0 0 1-3.02 5.497 2.166 2.166 0 0 0 3.683 2.281 64.769 64.769 0 0 0 3.235-5.891 2.166 2.166 0 0 0-1.005-2.895zM116.139 101.639a2.166 2.166 0 0 0-3.044.347l-.039.05v-.005a60.74 60.74 0 0 1-4.084 4.767 2.167 2.167 0 1 0 3.142 2.987 65.952 65.952 0 0 0 4.372-5.102 2.166 2.166 0 0 0-.347-3.044zM127.87 65.103a2.133 2.133 0 0 0-2.24 2.023l-.003.066a60.524 60.524 0 0 1-.544 6.248 2.167 2.167 0 0 0 4.292.596c.309-2.22.503-4.453.583-6.692a2.166 2.166 0 0 0-2.088-2.24zM104.433 111.107v.007a61.23 61.23 0 0 1-4.983 3.83 2.173 2.173 0 0 0 2.47 3.573 66.294 66.294 0 0 0 5.33-4.117 2.167 2.167 0 0 0-2.817-3.293zM82.574 123.084a60.346 60.346 0 0 1-6.088 1.495 2.167 2.167 0 0 0 .815 4.258 64.171 64.171 0 0 0 6.526-1.606 2.166 2.166 0 0 0-1.253-4.147zM70.385 125.431l-.119.01.01.009a62.694 62.694 0 0 1-5.275.217h-.99a2.242 2.242 0 0 0-2.208 2.127A2.167 2.167 0 0 0 63.93 130h1.071c1.894 0 3.792-.085 5.633-.243a2.166 2.166 0 1 0-.249-4.326zM94.118 118.233h.002a61.179 61.179 0 0 1-5.646 2.726 2.167 2.167 0 0 0 1.629 4.015l.048-.02a65.145 65.145 0 0 0 6.049-2.921 2.166 2.166 0 1 0-2.082-3.8z"/><path d="M29.44 38.6H60.4v4.752L41.392 89h-5.256l19.008-45.648H29.44V38.6zM64.77 89v-4.536l18.145-18.288c5.184-5.184 7.776-9.624 7.776-13.32 0-3.216-1.008-5.712-3.024-7.488-1.968-1.824-4.344-2.736-7.128-2.736-5.184 0-8.952 2.376-11.304 7.128l-4.248-2.52c1.584-3.12 3.744-5.472 6.48-7.056 2.736-1.632 5.76-2.448 9.072-2.448 4.032 0 7.56 1.368 10.584 4.104 3.072 2.688 4.608 6.36 4.608 11.016 0 2.928-.816 5.736-2.448 8.424-1.632 2.688-3.936 5.52-6.912 8.496l-14.4 14.328h24.84V89H64.77z"/></g><defs><clipPath id="a"><path fill="#fff" d="M0 0h130v130H0z"/></clipPath></defs></svg>