<svg width="130" height="130" viewBox="0 0 130 130" fill="none" xmlns="http://www.w3.org/2000/svg"><path d="M34.157 107.656h4.813c.84 2.359 3.075 4.063 5.72 4.063a6.101 6.101 0 0 0 6.093-6.094 6.101 6.101 0 0 0-6.093-6.094c-2.645 0-4.88 1.704-5.72 4.063h-4.813c-.84-2.359-3.075-4.063-5.72-4.063a6.101 6.101 0 0 0-6.093 6.094 6.101 6.101 0 0 0 6.093 6.094c2.645 0 4.88-1.704 5.72-4.063zm10.53-4.062c1.12 0 2.032.91 2.032 2.031a2.033 2.033 0 0 1-2.032 2.031c-1.119 0-2.03-.91-2.03-2.031s.911-2.031 2.03-2.031zm-18.28 2.031c0-1.121.911-2.031 2.03-2.031 1.12 0 2.032.91 2.032 2.031a2.033 2.033 0 0 1-2.032 2.031c-1.119 0-2.03-.91-2.03-2.031zM103.967 99.531c.841 2.359 3.076 4.063 5.721 4.063a6.101 6.101 0 0 0 6.093-6.094 6.101 6.101 0 0 0-6.093-6.094c-2.645 0-4.88 1.704-5.721 4.063h-12.56a2.03 2.03 0 0 0-2.032 2.031v10.53c-2.358.841-4.063 3.075-4.063 5.72a6.101 6.101 0 0 0 6.094 6.094 6.101 6.101 0 0 0 6.094-6.094c0-2.645-1.704-4.879-4.063-5.72v-8.499h10.53zm5.721-4.062c1.119 0 2.031.91 2.031 2.031a2.033 2.033 0 0 1-2.031 2.031c-1.12 0-2.032-.91-2.032-2.031s.912-2.031 2.032-2.031zM91.406 115.78c-1.119 0-2.031-.91-2.031-2.031s.912-2.031 2.031-2.031c1.12 0 2.031.91 2.031 2.031a2.033 2.033 0 0 1-2.03 2.031z" fill="#A6CE39"/><path d="M65 4.063C31.4 4.063 4.062 31.398 4.062 65a2.03 2.03 0 0 0 2.032 2.031H34.53V73.5a6.088 6.088 0 0 0-3.688 3.689h-9.69l-5.498-5.5a2.026 2.026 0 0 0-1.436-.594H6.094v4.062h7.284l5.498 5.499c.38.382.898.595 1.436.595h10.53a6.088 6.088 0 0 0 3.69 3.689v4.436H21.97c-.84-2.358-3.075-4.063-5.72-4.063a6.101 6.101 0 0 0-6.094 6.094A6.101 6.101 0 0 0 16.25 97.5c2.645 0 4.88-1.704 5.72-4.063h14.593a2.03 2.03 0 0 0 2.03-2.03v-6.468c2.359-.841 4.063-3.076 4.063-5.72 0-2.645-1.704-4.88-4.062-5.72V67.03h8.125v22.344c0 .54.213 1.056.595 1.436l7.53 7.53v15.783c-2.358.841-4.063 3.075-4.063 5.72a6.102 6.102 0 0 0 6.094 6.094 6.102 6.102 0 0 0 6.094-6.094c0-2.645-1.705-4.879-4.063-5.72V98.341l3.468-3.467c.381-.38.595-.896.595-1.436v-10.53c2.358-.841 4.062-3.076 4.062-5.72 0-2.645-1.704-4.88-4.062-5.72V67.03H82.44l-4.657 4.658c-.382.38-.596.896-.596 1.436v4.436c-2.358.841-4.062 3.076-4.062 5.72 0 2.645 1.704 4.88 4.063 5.72v5.627l-3.468 3.467c-.382.38-.595.896-.595 1.436v12.561c-2.358.841-4.063 3.076-4.063 5.72a6.101 6.101 0 0 0 6.094 6.094 6.101 6.101 0 0 0 6.094-6.094c0-2.644-1.704-4.879-4.063-5.72v-11.72l3.468-3.467c.382-.38.595-.896.595-1.436V89a6.088 6.088 0 0 0 3.689-3.689h10.53c.538 0 1.056-.213 1.436-.595l5.498-5.498h9.689c.841 2.358 3.076 4.062 5.72 4.062a6.101 6.101 0 0 0 6.094-6.094c0-2.644-1.704-4.879-4.062-5.72v-4.436h4.062A2.031 2.031 0 0 0 125.938 65c0-33.6-27.337-60.938-60.938-60.938zM16.25 93.436c-1.12 0-2.031-.91-2.031-2.03 0-1.122.912-2.032 2.031-2.032 1.12 0 2.031.91 2.031 2.031a2.033 2.033 0 0 1-2.031 2.031zM36.563 81.25c-1.12 0-2.032-.91-2.032-2.031s.912-2.031 2.032-2.031c1.119 0 2.03.91 2.03 2.03a2.033 2.033 0 0 1-2.03 2.032zm38.593 38.594c-1.119 0-2.031-.91-2.031-2.032 0-1.121.912-2.031 2.031-2.031 1.12 0 2.031.91 2.031 2.031a2.033 2.033 0 0 1-2.03 2.032zm39.096-83.257c-3.193 1.263-6.673 2.39-10.378 3.378-1.751-5.531-4.062-10.622-6.833-15.127a72.314 72.314 0 0 0 6.216-1.87 57.31 57.31 0 0 1 10.995 13.619zM83.267 62.969c-.05-5.06-.286-10.148-.705-15.107 6.486-.658 12.722-1.675 18.519-3.018 1.463 5.667 2.324 11.763 2.476 18.125h-20.29zm-8.734-38.903a154.12 154.12 0 0 1-9.533.309c-3.236 0-6.417-.116-9.533-.309C58.31 13.806 61.961 8.125 65 8.125c3.039 0 6.69 5.681 9.533 15.941zM72.757 9.281c6.642 2.005 12.663 6.546 17.591 12.886-3.654.689-7.587 1.209-11.68 1.58-1.58-5.988-3.554-10.999-5.91-14.466zm2.79 18.797c1.07 4.65 1.978 10.034 2.622 16.1-4.315.33-8.72.51-13.169.51-4.448 0-8.854-.18-13.167-.51.644-6.066 1.552-11.45 2.623-16.1 3.44.232 6.967.36 10.544.36 3.577 0 7.103-.128 10.546-.36zm-24.215-4.333c-4.093-.371-8.026-.891-11.68-1.58 4.928-6.342 10.946-10.881 17.59-12.886-2.356 3.47-4.33 8.48-5.91 14.466zm-.963 3.99c-1.09 4.94-1.94 10.392-2.545 16.087-6.234-.632-12.22-1.603-17.782-2.882 1.786-5.614 4.178-10.725 7.049-15.16 4.123.854 8.586 1.508 13.278 1.955zm-2.933 20.127a204.978 204.978 0 0 0-.705 15.107H26.439c.152-6.36 1.013-12.458 2.476-18.125 5.8 1.345 12.035 2.36 18.52 3.018zm4.02.358c4.44.345 8.972.53 13.544.53 4.572 0 9.104-.185 13.544-.53.38 4.584.612 9.508.659 14.749H50.794c.05-5.239.28-10.165.66-14.75zm30.722-4.398c-.605-5.695-1.454-11.147-2.545-16.087 4.69-.447 9.155-1.101 13.278-1.952 2.87 4.436 5.263 9.547 7.049 15.159-5.562 1.277-11.548 2.248-17.782 2.88zm17.433-23.906a76.849 76.849 0 0 1-4.96 1.339c-2.487-3.44-5.264-6.45-8.274-8.952a56.711 56.711 0 0 1 13.234 7.613zm-64.263 1.337a77.183 77.183 0 0 1-4.96-1.339 56.817 56.817 0 0 1 13.233-7.613c-3.01 2.503-5.787 5.513-8.273 8.952zm-8.605 1.716c1.932.68 4 1.308 6.216 1.871-2.77 4.506-5.082 9.596-6.833 15.127-3.703-.987-7.185-2.115-10.378-3.378a57.202 57.202 0 0 1 10.995-13.62zM13.841 40.196c3.423 1.378 7.162 2.602 11.152 3.669-1.554 5.984-2.46 12.41-2.615 19.106H8.16a56.5 56.5 0 0 1 5.68-22.775zm43.034 81.679c-1.12 0-2.031-.91-2.031-2.031s.912-2.032 2.031-2.032c1.12 0 2.031.911 2.031 2.032a2.033 2.033 0 0 1-2.031 2.031zm4.063-42.656c-1.12 0-2.032-.91-2.032-2.031 0-1.122.912-2.032 2.032-2.032 1.119 0 2.03.91 2.03 2.031a2.033 2.033 0 0 1-2.03 2.032zm-2.032-7.751c-2.358.84-4.062 3.075-4.062 5.72 0 2.644 1.704 4.879 4.062 5.72v9.689l-2.031 2.03-6.094-6.093V67.031h8.125v4.436zM79.22 85.311c-1.12 0-2.031-.91-2.031-2.03 0-1.122.912-2.032 2.03-2.032 1.12 0 2.032.91 2.032 2.031a2.033 2.033 0 0 1-2.031 2.031zm38.593-6.093a2.033 2.033 0 0 1-2.031-2.031c0-1.122.912-2.032 2.031-2.032 1.12 0 2.032.91 2.032 2.031a2.034 2.034 0 0 1-2.032 2.032zm-2.031-7.751a6.09 6.09 0 0 0-3.689 3.688h-10.53c-.538 0-1.056.213-1.436.595l-5.498 5.499h-9.69a6.088 6.088 0 0 0-3.688-3.689v-3.595l6.935-6.935h27.596v4.436zm-8.161-8.5c-.155-6.694-1.061-13.121-2.615-19.105 3.99-1.065 7.729-2.291 11.152-3.669a56.44 56.44 0 0 1 5.681 22.775H107.62z" fill="#A6CE39"/></svg>