<svg width="130" height="130" viewBox="0 0 130 130" fill="none" xmlns="http://www.w3.org/2000/svg"><g clip-path="url(#a)" fill="#A6CE39"><path d="M65 79.677c-5.78 0-10.484 4.704-10.484 10.484S59.22 100.645 65 100.645c5.78 0 10.484-4.703 10.484-10.484 0-5.78-4.704-10.484-10.484-10.484zm0 16.775a6.299 6.299 0 0 1-6.29-6.29A6.298 6.298 0 0 1 65 83.87a6.299 6.299 0 0 1 6.29 6.29 6.299 6.299 0 0 1-6.29 6.29zM62.903 8.387h16.774v4.194H62.903V8.387zM62.903 16.774h16.774v4.194H62.903v-4.194zM50.323 25.161h29.354v4.194H50.323V25.16zM50.323 33.548h29.354v4.194H50.323v-4.194zM50.323 41.935h29.354v4.194H50.323v-4.194z"/><path d="M130 67.097V50.323h-29.355v16.774h12.581v20.968H88.064v-3.61l-5.147-1.716 2.426-4.852-8.069-8.069-4.853 2.429-1.715-5.15h-3.61v-12.58h20.968V29.354h25.162v11.712l-4.808-4.808-2.965 2.965 9.87 9.87 9.869-9.87-2.965-2.965-4.808 4.808V25.161H88.064V0h-32.32L41.936 13.81V25.16H12.581v15.906L7.773 36.26l-2.965 2.965 9.87 9.87 9.869-9.87-2.965-2.965-4.808 4.808V29.355h25.161v25.161h20.968v12.58h-3.609l-1.715 5.15-4.854-2.428-8.068 8.069 2.426 4.852-5.148 1.717v3.608h-25.16V67.097h12.58V50.323H0v16.774h12.58v33.846c-3.608.937-6.29 4.194-6.29 8.089 0 4.626 3.762 8.387 8.387 8.387 4.626 0 8.387-3.761 8.387-8.387 0-3.895-2.68-7.152-6.29-8.089v-8.685h12.58v25.547c-2.434.869-4.193 3.175-4.193 5.905a6.299 6.299 0 0 0 6.29 6.29 6.299 6.299 0 0 0 6.29-6.29c0-2.73-1.758-5.036-4.193-5.905V92.258h8.387v3.609l5.148 1.717-2.426 4.852 8.069 8.069 4.853-2.429 1.715 5.15h11.41l1.715-5.15 4.853 2.429 8.07-8.069-2.427-4.852 5.15-1.717v-3.609h8.387v25.547c-2.435.869-4.194 3.175-4.194 5.905a6.299 6.299 0 0 0 6.29 6.29 6.299 6.299 0 0 0 6.291-6.29c0-2.73-1.759-5.036-4.194-5.905V92.258h12.581v8.685c-3.609.937-6.291 4.194-6.291 8.089 0 4.626 3.762 8.387 8.388 8.387 4.625 0 8.387-3.761 8.387-8.387 0-3.895-2.682-7.152-6.291-8.089V67.097H130zM54.516 7.159v5.422h-5.422l5.422-5.422zm-8.387 9.615h12.58V4.194h25.162v46.129H46.129V16.774zM4.194 54.516H25.16v8.387H4.194v-8.387zm14.677 54.516a4.198 4.198 0 0 1-4.194 4.194 4.198 4.198 0 0 1-4.193-4.194 4.197 4.197 0 0 1 4.193-4.193 4.197 4.197 0 0 1 4.194 4.193zm12.58 16.774a2.099 2.099 0 0 1-2.096-2.096 2.1 2.1 0 0 1 2.097-2.097 2.1 2.1 0 0 1 2.096 2.097c0 1.155-.94 2.096-2.096 2.096zm52.42-32.963l-4.81 1.604-.354.924c-.106.269-.21.536-.326.795l-.406.908 2.267 4.534-3.794 3.793-4.533-2.267-.907.407c-.258.115-.52.22-.786.321l-.934.352-1.607 4.818h-5.364l-1.607-4.818-.934-.352a14.973 14.973 0 0 1-.786-.321l-.907-.407-4.533 2.267-3.794-3.793 2.267-4.534-.406-.908c-.118-.262-.22-.526-.326-.794l-.354-.925-4.808-1.604v-5.365l4.81-1.604.354-.925c.106-.268.21-.535.326-.796l.406-.907-2.267-4.533 3.794-3.793 4.533 2.266.907-.406c.258-.116.52-.22.787-.322l.933-.352 1.607-4.816h5.364l1.607 4.818.933.353c.267.1.529.205.787.321l.907.407 4.533-2.267 3.794 3.793-2.267 4.534.406.908c.118.262.22.526.326.794l.354.925 4.808 1.604v5.363zm14.677 32.963a2.099 2.099 0 0 1-2.096-2.096 2.1 2.1 0 0 1 2.096-2.097 2.1 2.1 0 0 1 2.097 2.097c0 1.155-.94 2.096-2.097 2.096zm20.968-16.774a4.198 4.198 0 0 1-4.193 4.194 4.198 4.198 0 0 1-4.194-4.194 4.197 4.197 0 0 1 4.194-4.193 4.197 4.197 0 0 1 4.193 4.193zm-14.677-54.516h20.967v8.387h-20.967v-8.387z"/></g><defs><clipPath id="a"><path fill="#fff" d="M0 0h130v130H0z"/></clipPath></defs></svg>