<svg width="130" height="130" viewBox="0 0 130 130" fill="none" xmlns="http://www.w3.org/2000/svg"><path d="M119.844 16.25h-4.063v-4.063a2.031 2.031 0 0 0-2.031-2.03H96.302l-5.485-5.505a2.098 2.098 0 0 0-1.442-.59H22.344a2.031 2.031 0 0 0-2.032 2.032v17.51a24.352 24.352 0 0 0 0 42.188v45.927a2.032 2.032 0 0 0 2.032 2.031h4.062v4.062a2.033 2.033 0 0 0 2.032 2.032H32.5v4.062a2.032 2.032 0 0 0 2.031 2.032h85.313a2.032 2.032 0 0 0 2.031-2.032V18.281a2.031 2.031 0 0 0-2.031-2.031zm-28.438-5.26l11.355 11.354H91.406V10.989zM12.878 49.947a20.312 20.312 0 1 1 39.832-3.244 20.313 20.313 0 0 1-39.832 3.244zm25.025 22.73l-1.097-4.042c.67-.122 1.34-.224 2.011-.406.67-.183 1.3-.386 1.93-.63l1.077 4.022-3.92 1.056zm6.927 2.356l5.26 19.622-7.84 2.092-5.26-19.621 7.84-2.093zm-20.455 34.654V67.62a23.9 23.9 0 0 0 8.084 1.463c.082 0 .183-.02.264-.02l1.26 4.671a2.03 2.03 0 0 0-1.24.955 1.995 1.995 0 0 0-.202 1.524l6.297 23.562a2.06 2.06 0 0 0 1.97 1.503c.18.003.358-.024.528-.081l11.76-3.149a2.03 2.03 0 0 0 1.443-2.498l-6.297-23.542a2.031 2.031 0 0 0-2.498-1.422l-1.26-4.692a24.375 24.375 0 0 0-18.301-44.749c-.612.166-1.216.363-1.808.59V8.124h62.969v16.25a2.031 2.031 0 0 0 2.031 2.031h16.25v83.282h-81.25zm6.094 6.093v-2.031h77.187a2.032 2.032 0 0 0 2.032-2.031V24.375a2.095 2.095 0 0 0-.59-1.442l-8.734-8.714h11.355V115.78h-81.25zm87.344 6.094h-81.25v-2.031h77.187a2.03 2.03 0 0 0 2.031-2.032v-97.5h2.032v101.563z" fill="#A6CE39"/><path d="M32.5 30.469v-4.063a18.304 18.304 0 0 0-18.281 18.282h4.062A14.235 14.235 0 0 1 32.5 30.468z" fill="#A6CE39"/></svg>