<svg width="130" height="130" viewBox="0 0 130 130" fill="none" xmlns="http://www.w3.org/2000/svg"><path d="M123.5 65h-2.167V19.5c-.007-5.98-4.853-10.826-10.833-10.833h-91C13.52 8.674 8.674 13.52 8.667 19.5V52H6.5A6.5 6.5 0 0 0 0 58.5v56.333a6.5 6.5 0 0 0 6.5 6.5h82.333c1.197 0 2.167-.97 2.167-2.166-.007-5.98-4.853-10.827-10.833-10.834h-6.5v-13h26v19.5a6.5 6.5 0 0 0 6.5 6.5H123.5a6.5 6.5 0 0 0 6.5-6.5V71.5a6.5 6.5 0 0 0-6.5-6.5zm-75.833 49.833c0 1.197-.97 2.167-2.167 2.167h-39a2.167 2.167 0 0 1-2.167-2.167v-2.166h43.334v2.166zm0-6.5H4.333V58.5c0-1.197.97-2.167 2.167-2.167h39c1.197 0 2.167.97 2.167 2.167v49.833zm32.5 4.334a6.512 6.512 0 0 1 6.13 4.333H51.6a6.426 6.426 0 0 0 .399-2.167v-2.166h28.167zM52 108.333v-13h4.333v13H52zm8.667 0v-13h8.666v13h-8.666zm39-17.333H52V78h47.667v13zm0-19.5v2.167H52V58.5a6.422 6.422 0 0 0-.741-2.949c.032-.03.076-.039.106-.071l21.45-21.45a2.167 2.167 0 0 0-3.064-3.064l-21.45 21.45c-.052.054-.073.123-.119.18A6.418 6.418 0 0 0 45.5 52H13V19.5a6.5 6.5 0 0 1 6.5-6.5h91a6.5 6.5 0 0 1 6.5 6.5V65h-10.833a6.5 6.5 0 0 0-6.5 6.5zm26 43.333c0 1.197-.97 2.167-2.167 2.167h-17.333a2.167 2.167 0 0 1-2.167-2.167v-2.166h21.667v2.166zm0-6.5H104V71.5c0-1.197.97-2.167 2.167-2.167H123.5c1.197 0 2.167.97 2.167 2.167v36.833z" fill="#A6CE39"/><path d="M25.89 78.373a2.167 2.167 0 0 0-3.064 0l-9.191 9.19a2.167 2.167 0 1 0 3.063 3.064l9.192-9.19c.386-.671-.391-1.945 0-3.064zM38.836 78.373c-.84-.811-2.17-.811-3.01 0l-9.191 9.19a2.167 2.167 0 1 0 3.063 3.064l9.191-9.19a2.167 2.167 0 0 0-.053-3.064zM85.979 30.968c-.84-.81-2.171-.81-3.01 0l-21.45 21.45a2.167 2.167 0 1 0 3.063 3.064l21.45-21.45a2.167 2.167 0 0 0-.053-3.064zM119.376 84.238a2.167 2.167 0 0 0-3.011 0l-6.127 6.127a2.166 2.166 0 1 0 3.01 3.117l.054-.053 6.127-6.127a2.168 2.168 0 0 0-.053-3.064zM65.043 82.333h-.021a2.167 2.167 0 0 0 .021 4.334 2.167 2.167 0 0 0 0-4.334zM69.333 17.333h-8.666a2.167 2.167 0 0 0 0 4.334h8.666a2.167 2.167 0 0 0 0-4.334z" fill="#A6CE39"/></svg>