<svg width="524" height="524" viewBox="0 0 524 524" fill="none" xmlns="http://www.w3.org/2000/svg"><path d="M411.157 235.955c9.27 40.023 22.588 80.657 9.729 109.807-12.87 28.784-51.74 45.897-89.169 68.278-37.606 22.57-73.416 50.033-105.95 46.436-32.523-3.231-61.417-37.899-79.095-71.256-17.501-33.546-23.622-66.336-36.796-102.211-12.987-35.697-33.216-74.657-22.842-101.167 10.385-26.144 51.019-39.463 88.725-64.784 37.518-25.499 72.108-63 107.383-65.714 35.275-2.715 71.778 29.158 92.462 64.989 20.685 35.831 26.095 75.421 35.553 115.622z" fill="url(#b)" filter="url(#a)"/><defs><filter id="a" x="0" y="0" width="523.33" height="523.836" filterUnits="userSpaceOnUse" color-interpolation-filters="sRGB"><feFlood flood-opacity="0" result="BackgroundImageFix"/><feColorMatrix in="SourceAlpha" values="0 0 0 0 0 0 0 0 0 0 0 0 0 0 0 0 0 0 127 0"/><feOffset dy="4"/><feGaussianBlur stdDeviation="2"/><feColorMatrix values="0 0 0 0 0 0 0 0 0 0 0 0 0 0 0 0 0 0 0.25 0"/><feBlend in2="BackgroundImageFix" result="effect1_dropShadow"/><feBlend in="SourceGraphic" in2="effect1_dropShadow" result="shape"/></filter><linearGradient id="b" x1="388.696" y1="122.972" x2="134.634" y2="392.864" gradientUnits="userSpaceOnUse"><stop stop-color="#B9FF98"/><stop offset="1" stop-color="#82C344"/></linearGradient></defs></svg>