<svg width="461" height="457" viewBox="0 0 461 457" fill="none" xmlns="http://www.w3.org/2000/svg"><path d="M174.877 97.714c33.019-17.84 65.597-39.395 94.385-35.111 28.467 4.381 52.935 34.49 81.695 62.054 28.97 27.675 61.816 52.586 66.508 82.118 5.012 29.433-18.547 63.267-43.662 86.903-25.324 23.526-52.733 36.843-81.154 57.121-28.31 20.069-57.744 47.307-83.605 44.575-25.542-2.831-47.093-35.409-78.51-62.508-31.529-26.89-72.924-48.3-83.838-78.72-10.915-30.421 8.344-70.283 34.912-97.166 26.568-26.883 60.139-41.218 93.269-59.266z" fill="url(#b)" filter="url(#a)"/><defs><filter id="a" x="0" y="0" width="460.691" height="456.211" filterUnits="userSpaceOnUse" color-interpolation-filters="sRGB"><feFlood flood-opacity="0" result="BackgroundImageFix"/><feColorMatrix in="SourceAlpha" values="0 0 0 0 0 0 0 0 0 0 0 0 0 0 0 0 0 0 127 0"/><feOffset dy="4"/><feGaussianBlur stdDeviation="2"/><feColorMatrix values="0 0 0 0 0 0 0 0 0 0 0 0 0 0 0 0 0 0 0.25 0"/><feBlend in2="BackgroundImageFix" result="effect1_dropShadow"/><feBlend in="SourceGraphic" in2="effect1_dropShadow" result="shape"/></filter><linearGradient id="b" x1="80.77" y1="144.808" x2="379.921" y2="303.403" gradientUnits="userSpaceOnUse"><stop stop-color="#B9FF98"/><stop offset="1" stop-color="#A6CE39"/></linearGradient></defs></svg>