<svg width="214" height="220" viewBox="0 0 214 220" fill="none" xmlns="http://www.w3.org/2000/svg"><path d="M160.141 38.218c19.536 13.024 40.996 24.716 47.064 41.884 5.92 17.02-3.552 39.368-10.36 63.344-6.808 24.124-10.952 49.58-25.9 60.828-14.8 11.396-40.404 8.288-60.828 1.332-20.424-7.104-35.816-18.352-55.352-28.12-19.388-9.768-43.068-18.056-49.136-33.152-5.92-14.948 5.772-36.408 11.544-61.716C22.797 57.31 22.5 28.154 36.117 13.206 49.733-1.742 77.409-2.778 100.053 4.03s40.404 21.164 60.088 34.188z" fill="url(#b)" filter="url(#a)"/><defs><filter id="a" x="0" y="0" width="213.069" height="219.838" filterUnits="userSpaceOnUse" color-interpolation-filters="sRGB"><feFlood flood-opacity="0" result="BackgroundImageFix"/><feColorMatrix in="SourceAlpha" values="0 0 0 0 0 0 0 0 0 0 0 0 0 0 0 0 0 0 127 0"/><feOffset dy="4"/><feGaussianBlur stdDeviation="2"/><feColorMatrix values="0 0 0 0 0 0 0 0 0 0 0 0 0 0 0 0 0 0 0.25 0"/><feBlend in2="BackgroundImageFix" result="effect1_dropShadow"/><feBlend in="SourceGraphic" in2="effect1_dropShadow" result="shape"/></filter><linearGradient id="b" x1="106.535" x2="106.535" y2="211.838" gradientUnits="userSpaceOnUse"><stop stop-color="#B9FF98"/><stop offset="1" stop-color="#A6CE39"/></linearGradient></defs></svg>