<svg width="30" height="30" viewBox="0 0 30 30" fill="none" xmlns="http://www.w3.org/2000/svg"><path d="M26.484 0H3.516A3.52 3.52 0 0 0 0 3.516v22.968A3.52 3.52 0 0 0 3.516 30h22.968A3.52 3.52 0 0 0 30 26.484V3.516A3.52 3.52 0 0 0 26.484 0zm1.172 26.484c0 .646-.525 1.172-1.172 1.172h-6.68v-9.55h3.621l.598-3.633h-4.218v-2.52c0-.994.763-1.758 1.758-1.758h2.402V6.562h-2.402a5.39 5.39 0 0 0-5.39 5.401v2.51h-3.517v3.632h3.517v9.551H3.516a1.173 1.173 0 0 1-1.172-1.172V3.516c0-.647.525-1.172 1.172-1.172h22.968c.646 0 1.172.525 1.172 1.172v22.968z" fill="#fff"/></svg>