<svg width="30" height="30" viewBox="0 0 30 30" fill="none" xmlns="http://www.w3.org/2000/svg"><g clip-path="url(#a)"><path d="M29.537 2.98c-.367-.448-.916-.695-1.546-.695-.343 0-.706.072-1.079.215L1.518 12.194C.17 12.708-.012 13.48 0 13.894c.012.414.237 1.175 1.612 1.612l.025.007 5.267 1.508 2.849 8.146c.388 1.11 1.26 1.8 2.275 1.8.64 0 1.27-.268 1.821-.775l3.258-3 4.726 3.805.002.001.044.036.013.01c.525.407 1.099.622 1.659.623 1.094 0 1.966-.81 2.22-2.064l4.16-20.545c.167-.825.027-1.563-.394-2.078zM8.667 16.735l10.162-5.192-6.328 6.724a.879.879 0 0 0-.213.391l-1.22 4.943-2.402-6.866zm3.991 8.163a1.643 1.643 0 0 1-.127.105l1.133-4.584 2.059 1.658-3.065 2.821zM28.208 4.71l-4.16 20.546c-.04.196-.168.654-.497.654-.163 0-.367-.089-.576-.25l-5.355-4.311a.01.01 0 0 0-.002-.002l-3.186-2.566 9.15-9.724a.879.879 0 0 0-1.04-1.385l-15.05 7.69-5.34-1.528 25.387-9.69c.215-.083.364-.1.452-.1.054 0 .15.006.185.05.047.057.106.251.033.616z" fill="#fff"/></g><defs><clipPath id="a"><path fill="#fff" d="M0 0h30v30H0z"/></clipPath></defs></svg>