<svg width="1324" height="564" viewBox="0 0 1324 564" fill="none" xmlns="http://www.w3.org/2000/svg"><path d="M1322.22-67c-.15.07-42.2 19.227-84.34 61.74-42.12 42.49-84.33 108.489-84.32 201.875 0 16.6 1.33 34.057 4.23 52.398 3.05 19.276 4.49 37.688 4.49 55.229-.02 83.507-32.64 147.242-80.94 190.253-48.3 43.003-112.382 65.209-175.189 65.205-31.619 0-62.908-5.624-91.69-17.029-38.701-15.336-67.086-41.036-92.625-71.296-38.312-45.363-70.032-100.969-120.281-146.003-50.25-45.048-119.125-79.292-231.112-81.923-75.721-1.804-136.385-21.13-184.873-49.085C112.846 152.434 67.483 91.008 40.303 40.021 26.716 14.53 17.681-8.34 12.045-24.821 9.227-33.061 7.262-39.705 6-44.28a197.938 197.938 0 0 1-1.379-5.252c-.148-.598-.256-1.051-.326-1.352l-.103-.445L0-50.4c.043.172 16.11 72.734 70.428 146.333 27.162 36.793 63.904 73.847 112.998 102.156 49.088 28.308 110.518 47.846 186.914 49.656 74.118 1.765 128.852 17.384 171.801 40.728 64.409 35.01 102.459 87.534 139.19 137.445 18.366 24.946 36.392 49.222 57.262 70.236 20.868 21.011 44.601 38.755 74.287 50.514C842.206 558.288 874.023 564 906.151 564c63.806-.004 128.869-22.527 178.049-66.291 49.18-43.753 82.39-108.825 82.37-193.467 0-17.777-1.46-36.415-4.54-55.903-2.86-18.123-4.17-35.355-4.17-51.724.01-92.034 41.5-156.865 83.07-198.849 20.79-20.979 41.59-36.213 57.18-46.189 7.79-4.987 14.29-8.664 18.82-11.087 2.27-1.21 4.04-2.109 5.25-2.702.6-.297 1.06-.518 1.37-.665.3-.143.45-.21.45-.21L1322.22-67z" fill="#D2EA94" fill-opacity=".48"/><path d="M1092.08-133c-.05.151-62 137.59-62.02 295.71 0 28.382 2 57.431 6.72 86.473 3.01 18.55 4.4 35.473 4.4 50.879-.02 55.363-17.81 91.09-42.233 113.156-24.432 22.058-55.742 30.483-82.942 30.48-15.139.004-28.983-2.617-39.526-6.859-28.065-11.265-50.71-34.954-71.696-64.659-31.494-44.53-59.118-102.367-96.362-150.708-18.628-24.17-39.688-45.977-64.904-62.515-25.212-16.535-54.592-27.773-89.685-30.791-8.962-.772-18.108-1.103-27.405-1.103-56.009.015-117.507 11.935-176.82 11.924-42.523 0-83.848-6.102-121.298-26.898-37.445-20.802-71.166-56.322-98.406-115.663L126-1.778c27.502 59.964 61.889 96.35 100.228 117.629 38.332 21.284 80.467 27.438 123.379 27.438 59.868-.011 121.401-11.935 176.82-11.924 9.196 0 18.22.327 27.038 1.086 45.845 3.959 81.466 22.103 111.127 47.936 44.478 38.743 75.335 94.908 105.801 145.883 15.241 25.484 30.394 49.665 47.209 69.724 16.811 20.052 35.317 36.008 57.277 44.837 11.172 4.489 25.493 7.167 41.126 7.169 28.052 0 60.4-8.659 85.815-31.589 25.43-22.923 43.68-60.089 43.65-116.349 0-15.664-1.4-32.814-4.45-51.57-4.68-28.781-6.66-57.602-6.66-85.78-.01-78.501 15.41-152.03 30.83-205.908 7.71-26.939 15.42-48.965 21.2-64.248 2.89-7.642 5.3-13.598 6.98-17.639.84-2.02 1.5-3.56 1.95-4.594.45-1.037.68-1.553.68-1.555l-3.92-1.768z" fill="#D2EA94" fill-opacity=".48"/><path d="M998.726-46.365c0 .001.045.275.125.83.567 3.878 2.859 20.944 2.859 42.58.01 24.056-2.864 53.772-13.879 77.171-5.502 11.707-13.002 21.813-23.13 28.996-10.134 7.178-22.922 11.505-39.314 11.511-8.858 0-18.763-1.272-29.824-4.076-54.44-13.793-89.494-34.023-120.765-50.96-15.633-8.468-30.325-16.12-46.001-21.664-15.67-5.547-32.326-8.97-51.759-8.964-33.648.004-75.522 10.197-135.59 36.881-11.195 4.98-28.22 9.485-48.506 12.699-20.292 3.22-43.872 5.179-68.311 5.177-43.85.01-90.484-6.324-125.88-22.75-17.703-8.206-32.574-18.912-42.995-32.52-10.417-13.619-16.453-30.127-16.462-50.304-.002-12.512 2.338-26.436 7.469-41.901L242.686-65C237.437-49.18 235-34.803 235-21.758c-.011 21.032 6.374 38.59 17.343 52.897 16.462 21.472 43.014 35.646 73.644 44.519 30.646 8.87 65.445 12.433 98.644 12.435 24.67 0 48.453-1.972 68.987-5.231 20.542-3.263 37.808-7.792 49.58-13.017 59.773-26.56 101.094-36.514 133.84-36.51 18.929.003 35.024 3.309 50.323 8.716 22.939 8.107 44.092 21.024 69.837 34.586 25.743 13.558 56.068 27.715 97.307 38.157 11.353 2.874 21.61 4.206 30.882 4.206 17.147.008 30.937-4.587 41.804-12.305 16.316-11.583 25.973-29.96 31.589-49.868 5.62-19.93 7.22-41.487 7.22-59.781 0-25.07-3.02-44.008-3.03-44.083l-4.244.672zM901.501 370.847v-2.152c-7.765-.002-15.165-2.321-21.974-6.578-10.206-6.383-19.043-17.181-25.304-30.897-6.26-13.715-9.943-30.323-9.941-48.22-.004-23.862 6.552-45.431 17.016-60.907 5.228-7.739 11.425-13.951 18.229-18.209 6.809-4.258 14.209-6.574 21.974-6.578 7.766.004 15.163 2.32 21.972 6.578 10.206 6.383 19.043 17.18 25.304 30.899 6.26 13.713 9.943 30.32 9.941 48.217.006 23.862-6.552 45.434-17.016 60.907-5.228 7.739-11.425 13.952-18.229 18.21-6.809 4.257-14.206 6.576-21.972 6.578V373c8.625.002 16.842-2.598 24.237-7.228 11.097-6.955 20.388-18.436 26.931-32.757C959.205 318.687 963 301.491 963 283c-.004-24.654-6.736-47.007-17.756-63.326-5.512-8.159-12.106-14.811-19.506-19.443-7.395-4.632-15.612-7.233-24.237-7.231-8.626-.002-16.844 2.599-24.237 7.231-11.099 6.953-20.39 18.433-26.931 32.755C843.795 247.314 840 264.509 840 283c.004 24.654 6.736 47.007 17.756 63.327 5.512 8.158 12.108 14.81 19.508 19.445 7.393 4.63 15.611 7.23 24.237 7.228v-2.153z" fill="#D2EA94" fill-opacity=".48"/></svg>